<?xml version="1.0" encoding="UTF-8" standalone="no"?>
<svg width="387px" height="118px" viewBox="0 0 387 118" version="1.1" xmlns="http://www.w3.org/2000/svg" xmlns:xlink="http://www.w3.org/1999/xlink" xmlns:sketch="http://www.bohemiancoding.com/sketch/ns">
    <!-- Generator: Sketch 3.3.3 (12081) - http://www.bohemiancoding.com/sketch -->
    <title>app_store</title>
    <desc>Created with Sketch.</desc>
    <defs></defs>
    <g id="Page-1" stroke="none" stroke-width="1" fill="none" fill-rule="evenodd" sketch:type="MSPage">
        <g id="Artboard-1-Copy" sketch:type="MSArtboardGroup" transform="translate(-182.000000, -996.000000)">
            <g id="app_store" sketch:type="MSLayerGroup" transform="translate(182.000000, 996.000000)">
                <g id="Group" transform="translate(0.074074, 0.400000)">
                    <path d="M14.4123333,116.6 C6.97755556,116.6 0.925925926,110.4288 0.925925926,102.8743 L0.925925926,14.3054 C0.925925926,6.748 6.97755556,0.6 14.4123333,0.6 L372.228481,0.6 C379.660407,0.6 385.925926,6.748 385.925926,14.3054 L385.925926,102.8743 C385.925926,110.4288 379.660407,116.6 372.228481,116.6 L14.4123333,116.6 Z" id="Shape" stroke="#FFFFFF" sketch:type="MSShapeGroup"></path>
                    <text id="Coming-soon-to-the" sketch:type="MSTextLayer" font-family="Helvetica" font-size="26" font-weight="260" fill="#FFFFFF">
                        <tspan x="122.703704" y="38.181">Coming soon to the</tspan>
                    </text>
                    <path d="M76.8465185,57.9736 C76.7638148,48.6269 84.3725556,44.0797 84.7204815,43.868 C80.4113333,37.4793 73.7322963,36.6064 71.3852222,36.5368 C65.7756296,35.9365 60.3342963,39.9501 57.4767407,39.9501 C54.5621481,39.9501 50.1617407,36.5948 45.4191111,36.6934 C39.3161481,36.7891 33.6067407,40.3822 30.4754074,45.9618 C24.0131111,57.3385 28.8327407,74.057 35.0241111,83.2529 C38.1212222,87.7566 41.7402222,92.7852 46.4771481,92.6083 C51.1114074,92.414 52.8424815,89.6039 58.434963,89.6039 C63.9761111,89.6039 65.6016667,92.6083 70.4327037,92.4952 C75.4063333,92.414 78.5376667,87.9712 81.5264074,83.4269 C85.1054815,78.2649 86.5428148,73.1812 86.5998519,72.9202 C86.4829259,72.8796 76.9406296,69.1763 76.8465185,57.9736 L76.8465185,57.9736 Z" id="Shape" fill="#FFFFFF" sketch:type="MSShapeGroup"></path>
                    <path d="M67.7205926,30.4874 C70.2131111,27.3177 71.9185185,23.0054 71.4451111,18.6293 C67.8375185,18.7917 63.3258889,21.1668 60.7278519,24.2669 C58.4292593,26.9987 56.3759259,31.4763 56.9063704,35.6871 C60.9588519,35.9945 65.1197037,33.6078 67.7205926,30.4874 L67.7205926,30.4874 Z" id="Shape" fill="#FFFFFF" sketch:type="MSShapeGroup"></path>
                    <g transform="translate(121.000000, 53.000000)" id="Shape" fill="#FFFFFF" sketch:type="MSShapeGroup">
                        <path d="M31.482496,38.4536151 L25.2875298,38.4536151 L21.8940741,27.5452925 L10.0988148,27.5452925 L6.86630274,38.4536151 L0.835008052,38.4536151 L12.521153,1.31676226 L19.739066,1.31676226 L31.482496,38.4536151 L31.482496,38.4536151 Z M20.8711272,22.9687642 L17.8022866,13.2715472 C17.4776715,12.2808962 16.8693591,9.94798302 15.9718937,6.27559811 L15.8627794,6.27559811 C15.50543,7.85505849 14.9298519,10.1879717 14.1387729,13.2715472 L11.1244895,22.9687642 L20.8711272,22.9687642 L20.8711272,22.9687642 Z"></path>
                        <path d="M61.5353108,24.7351925 C61.5353108,29.2893962 60.3323253,32.8892264 57.9263543,35.5318925 C55.7713462,37.8843396 53.0953172,39.0591679 49.9009952,39.0591679 C46.4529823,39.0591679 43.976087,37.7922509 42.4675813,35.258417 L42.358467,35.258417 L42.358467,49.3647283 L36.5426731,49.3647283 L36.5426731,20.4907415 C36.5426731,17.6276208 36.4690209,14.6891547 36.3271723,11.6753434 L41.4419066,11.6753434 L41.7665217,15.9197943 L41.8756361,15.9197943 C43.8151433,12.7218057 46.7585024,11.1256019 50.7084412,11.1256019 C53.7963768,11.1256019 56.3742029,12.3729849 58.4364638,14.8705415 C60.5041804,17.3708887 61.5353108,20.6581755 61.5353108,24.7351925 L61.5353108,24.7351925 Z M55.6104026,24.9528566 C55.6104026,22.3464679 55.0375523,20.1977321 53.8863961,18.5066491 C52.6288535,16.7430113 50.9403092,15.8611925 48.8234911,15.8611925 C47.3886377,15.8611925 46.0847214,16.3523321 44.9199259,17.3206585 C43.7524026,18.2973566 42.9886023,19.5726453 42.6312528,21.1521057 C42.4512142,21.8888151 42.3611948,22.4915774 42.3611948,22.9659736 L42.3611948,27.4308792 C42.3611948,29.3786943 42.9449565,31.0223377 44.1124799,32.3646 C45.2800032,33.7068623 46.7966924,34.3765981 48.6625475,34.3765981 C50.8530177,34.3765981 52.5579291,33.5115226 53.7772818,31.7869528 C54.9993623,30.0595925 55.6104026,27.7824906 55.6104026,24.9528566 L55.6104026,24.9528566 Z"></path>
                        <path d="M91.6426828,24.7351925 C91.6426828,29.2893962 90.4396973,32.8892264 88.0309984,35.5318925 C85.8787182,37.8843396 83.2026892,39.0591679 80.0083671,39.0591679 C76.5603543,39.0591679 74.0834589,37.7922509 72.5776812,35.258417 L72.4685668,35.258417 L72.4685668,49.3647283 L66.6527729,49.3647283 L66.6527729,20.4907415 C66.6527729,17.6276208 66.5791208,14.6891547 66.4372721,11.6753434 L71.5520064,11.6753434 L71.8766216,15.9197943 L71.9857359,15.9197943 C73.9225153,12.7218057 76.8658744,11.1256019 80.8185411,11.1256019 C83.9037488,11.1256019 86.4815749,12.3729849 88.5492915,14.8705415 C90.6088245,17.3708887 91.6426828,20.6581755 91.6426828,24.7351925 L91.6426828,24.7351925 Z M85.7177746,24.9528566 C85.7177746,22.3464679 85.1421965,20.1977321 83.9910403,18.5066491 C82.7334976,16.7430113 81.050409,15.8611925 78.9308631,15.8611925 C77.4932818,15.8611925 76.1920934,16.3523321 75.02457,17.3206585 C73.8570467,18.2973566 73.0959742,19.5726453 72.7386248,21.1521057 C72.561314,21.8888151 72.4685668,22.4915774 72.4685668,22.9659736 L72.4685668,27.4308792 C72.4685668,29.3786943 73.0523285,31.0223377 74.2143961,32.3646 C75.3819195,33.7040717 76.8986087,34.3765981 78.7699195,34.3765981 C80.9603897,34.3765981 82.6653011,33.5115226 83.8846538,31.7869528 C85.1067343,30.0595925 85.7177746,27.7824906 85.7177746,24.9528566 L85.7177746,24.9528566 Z"></path>
                        <path d="M125.304454,28.0392226 C125.304454,31.1981434 124.232406,33.7682547 122.080126,35.7523472 C119.715072,37.920617 116.422548,39.0033566 112.191639,39.0033566 C108.285346,39.0033566 105.153765,38.2331604 102.783256,36.6899774 L104.130818,31.7311415 C106.684093,33.3106019 109.485604,34.1031226 112.538077,34.1031226 C114.728548,34.1031226 116.433459,33.5952396 117.658267,32.5850547 C118.87762,31.5748698 119.485932,30.2186547 119.485932,28.5275717 C119.485932,27.020666 118.984006,25.7509585 117.977427,24.7212396 C116.976303,23.6915208 115.304126,22.7343566 112.969079,21.8497472 C106.613169,19.4247453 103.437942,15.8723547 103.437942,11.2009472 C103.437942,8.14806792 104.550908,5.64493019 106.779568,3.69711509 C109.000045,1.74650943 111.962499,0.772601887 115.666931,0.772601887 C118.970367,0.772601887 121.714593,1.36141132 123.905063,2.53623962 L122.451114,7.3862434 C120.405221,6.24769245 118.091997,5.67841698 115.503259,5.67841698 C113.457366,5.67841698 111.858841,6.1946717 110.71314,7.2216 C109.74475,8.13969623 109.259192,9.25871321 109.259192,10.5842321 C109.259192,12.0520698 109.812947,13.265966 110.925913,14.2203396 C111.894303,15.1021585 113.653771,16.0565321 116.207047,17.0862509 C119.330444,18.3727019 121.624573,19.876817 123.100345,21.6013868 C124.57066,23.3203755 125.304454,25.4719019 125.304454,28.0392226 L125.304454,28.0392226 Z"></path>
                        <path d="M144.533127,16.1402491 L138.12266,16.1402491 L138.12266,29.1414962 C138.12266,32.448317 139.251994,34.1003321 141.516116,34.1003321 C142.55543,34.1003321 143.417433,34.0082434 144.099398,33.824066 L144.260341,38.3419925 C143.114641,38.7801113 141.606135,39.000566 139.737552,39.000566 C137.440696,39.000566 135.645765,38.2833906 134.350032,36.8518302 C133.059755,35.4174792 132.410525,33.0120113 132.410525,29.6326358 L132.410525,16.1346679 L128.591523,16.1346679 L128.591523,11.6697623 L132.410525,11.6697623 L132.410525,6.76673774 L138.12266,5.0031 L138.12266,11.6697623 L144.533127,11.6697623 L144.533127,16.1402491 L144.533127,16.1402491 Z"></path>
                        <path d="M173.456609,24.8440245 C173.456609,28.9601094 172.305452,32.3394849 170.008596,34.9821509 C167.599897,37.7029528 164.402847,39.0591679 160.417446,39.0591679 C156.576622,39.0591679 153.518692,37.7559736 151.238203,35.1495849 C148.957713,32.5431962 147.817469,29.2531189 147.817469,25.2877245 C147.817469,21.1381528 148.990448,17.7392434 151.344589,15.0965774 C153.693275,12.4511208 156.863047,11.1283925 160.848448,11.1283925 C164.689272,11.1283925 167.779936,12.4315868 170.112254,15.040766 C172.343643,17.5718094 173.456609,20.8395623 173.456609,24.8440245 L173.456609,24.8440245 Z M167.422586,25.0365736 C167.422586,22.5669226 166.907021,20.448883 165.862251,18.6824547 C164.642899,16.5448811 162.899797,15.4788849 160.64113,15.4788849 C158.303356,15.4788849 156.52752,16.5476717 155.308167,18.6824547 C154.263398,20.4516736 153.747833,22.6032 153.747833,25.1481962 C153.747833,27.6178472 154.263398,29.7358868 155.308167,31.4995245 C156.56571,33.6370981 158.322451,34.7030943 160.589301,34.7030943 C162.809778,34.7030943 164.552879,33.6147736 165.810422,31.4437132 C166.88247,29.6437981 167.422586,27.503434 167.422586,25.0365736 L167.422586,25.0365736 Z"></path>
                        <path d="M192.360667,16.9076547 C191.785089,16.7988226 191.17132,16.7430113 190.527546,16.7430113 C188.481652,16.7430113 186.899494,17.5327415 185.786528,19.1149925 C184.818138,20.5102755 184.33258,22.2739132 184.33258,24.4031151 L184.33258,38.4536151 L178.519514,38.4536151 L178.574071,20.108434 C178.574071,17.0220679 178.500419,14.2119679 178.355842,11.678134 L183.421475,11.678134 L183.634248,16.8016132 L183.795192,16.8016132 C184.40896,15.040766 185.377349,13.6231585 186.703089,12.5599528 C187.998821,11.6027887 189.398213,11.1256019 190.906718,11.1256019 C191.444106,11.1256019 191.929665,11.1646698 192.360667,11.234434 L192.360667,16.9076547 L192.360667,16.9076547 Z"></path>
                        <path d="M218.370795,23.7975623 C218.370795,24.8635585 218.302599,25.7621208 218.158023,26.4960396 L200.710641,26.4960396 C200.778837,29.1414962 201.621746,31.1646566 203.242093,32.5599396 C204.712409,33.8073226 206.613726,34.4324094 208.948773,34.4324094 C211.532055,34.4324094 213.888924,34.011034 216.00847,33.1654925 L216.919575,37.2955302 C214.44268,38.4005943 211.518415,38.9503358 208.144055,38.9503358 C204.085002,38.9503358 200.898863,37.7280679 198.580184,35.2863226 C196.26696,32.8445774 195.10762,29.5656623 195.10762,25.4523679 C195.10762,21.4144189 196.185124,18.0517868 198.34286,15.3700528 C200.601527,12.5069321 203.654,11.0753717 207.494824,11.0753717 C211.267452,11.0753717 214.12352,12.5069321 216.063027,15.3700528 C217.598812,17.6443642 218.370795,20.4572547 218.370795,23.7975623 L218.370795,23.7975623 Z M212.82506,22.2543792 C212.86325,20.4907415 212.484077,18.9670925 211.695726,17.6806415 C210.689147,16.0258358 209.142451,15.1998283 207.061095,15.1998283 C205.159778,15.1998283 203.613082,16.0063019 202.431919,17.6248302 C201.46353,18.9112811 200.887952,20.4544642 200.710641,22.2515887 L212.82506,22.2515887 L212.82506,22.2543792 Z"></path>
                    </g>
                </g>
            </g>
        </g>
    </g>
</svg>